<svg xmlns="http://www.w3.org/2000/svg" version="1.1" xmlns:xlink="http://www.w3.org/1999/xlink" xmlns:svgjs="http://svgjs.com/svgjs" width="512" height="512" x="0" y="0" viewBox="0 0 135.46666 135.46667" style="enable-background:new 0 0 512 512" xml:space="preserve" class=""><g><clipPath xmlns="http://www.w3.org/2000/svg" id="clipPath15568"><rect id="rect15570" height="106.627" rx="6.287" ry="5.292" width="70.379" x="133.879" y="108.087" fill="#000000" data-original="#000000"></rect></clipPath><g xmlns="http://www.w3.org/2000/svg" id="layer1" transform="translate(0 -161.533)"><path id="rect18350" d="m249.10732-114.30614h12.60388v93.067125h-12.60388z" fill="#ffa14e" transform="rotate(90)" paint-order="markers fill stroke" data-original="#ffa14e"></path><path id="rect18355" d="m22.297346 245.39383h90.956204v11.81943h-90.956204z" fill="#ff7377" paint-order="markers fill stroke" data-original="#ff7377"></path><path id="path16094" d="m9.8720963 198.15037c-2.852834 5.10111-1.030551 11.54906 4.0703127 14.40234l35.007079 23.0181c1.578558.88327 3.357144 1.34725 5.166015 1.34765h65.499427c5.84552.00035 10.58434-4.73846 10.58399-10.58398.00035-5.84552-4.73847-10.58433-10.58399-10.58398h-62.739661l-32.60083-21.67044c-3.844013-2.15128-10.755459-2.24628-14.4023427 4.07031z" fill="#d9defb" font-variant-ligatures="normal" font-variant-position="normal" font-variant-caps="normal" font-variant-numeric="normal" font-variant-alternates="normal" font-variant-east-asian="normal" font-feature-settings="normal" font-variation-settings="normal" text-indent="0" text-align="start" text-decoration-line="none" text-decoration-style="solid" text-decoration-color="#000000" text-transform="none" text-orientation="mixed" white-space="normal" shape-padding="0" shape-margin="0" inline-size="0" isolation="auto" mix-blend-mode="normal" solid-color="#000000" solid-opacity="1" vector-effect="none" paint-order="markers fill stroke" data-original="#d9defb"></path><path id="path16119" d="m37.552735 137.98633c-11.217229 19.49311-4.136277 44.0597 15.142577 54.84375l132.310548 86.99609c5.9662 3.33835 12.68871 5.09224 19.52539 5.09375h247.55664c18.83425.001 34.62782-13.01736 38.87695-30.54492h-255.98046c-23.11397 0-45.48438-17.25-45.48438-17.25z" fill="#bbcdfb" transform="matrix(.265 0 0 .265 0 161.533)" paint-order="markers fill stroke" data-original="#bbcdfb" class=""></path><path id="path16073" d="m82.22168 181.38037c-.000001 10.09909-8.186932 18.28602-18.286022 18.28602-10.099091 0-18.286022-8.18693-18.286023-18.28602-.000004-10.0991 8.186928-18.28603 18.286023-18.28603 10.099094 0 18.286026 8.18693 18.286022 18.28603z" fill="#f45558" paint-order="markers fill stroke" data-original="#f45558"></path><g transform="matrix(.265 0 0 .265 0 161.533)"><path id="rect15958" d="m57.636719 316.95312v157.56369h26.636719v-16.97071h343.771482v16.97071h26.63672v-16.97071h.002v-26.63867h-.002v-113.95431h-26.63672v113.95431h-343.771482v-113.95431z" fill="#2196f3" paint-order="markers fill stroke" data-original="#2196f3"></path><path id="rect16124" d="m57.636719 316.95312v44.67188h26.636719v-44.67188zm370.408201 0v44.67188h26.63672v-44.67188z" fill="#2979ff" paint-order="markers fill stroke" data-original="#2979ff"></path><path id="rect15934" d="m33.152344 173.82422c-.02474.00059-.04948.001-.07422.002-4.998066.0663-9.63472 2.61788-12.365234 6.80469-4.525 6.93917-2.568005 16.2327 4.371093 20.75781l121.958987 79.5312h-121.267579c-11.080003 0-20.0000004 8.91998-20.0000004 20v14c0 11.08003 8.9199974 20 20.0000004 20h460.857419c11.07999 0 20-8.91997 20-20v-14c0-11.08002-8.92001-20-20-20h-31.76758v-83.33984c-.00083-8.28393-6.71607-14.99917-15-15h-173.49804c-6.25603.001-11.85442 3.88487-14.04688 9.74414l-33.15234 88.5957h-17.20313l-160.494137-104.6582c-2.472488-1.61342-5.366116-2.46133-8.318359-2.4375zm243.617186 38.75586h44.10742v68.33984h-69.67968zm74.10742 0h73.98828v68.33984h-73.98828z" fill="#2196f3" paint-order="markers fill stroke" data-original="#2196f3"></path></g><path id="path15940" d="m126.99904 285.18054c0 5.64531-4.57642 10.22173-10.22173 10.22173-5.6453 0-10.22172-4.57643-10.22172-10.22173s4.57642-10.22173 10.22172-10.22173c5.64531 0 10.22173 4.57642 10.22173 10.22173z" fill="#455a64" paint-order="markers fill stroke" data-original="#455a64"></path><path id="path15950" d="m120.06034 285.18054c.00001 1.81317-1.46986 3.28304-3.28303 3.28304-1.81316-.00001-3.28302-1.46987-3.28302-3.28304s1.46986-3.28303 3.28302-3.28304c1.81317 0 3.28304 1.46987 3.28303 3.28304z" fill="#d9defb" paint-order="markers fill stroke" data-original="#d9defb"></path><path id="path15952" d="m28.99514 285.18054c.000002 5.64531-4.576423 10.22173-10.22173 10.22173-5.645302 0-10.2217203-4.57643-10.2217186-10.22173-.0000017-5.6453 4.5764166-10.22173 10.2217186-10.22173 5.645307 0 10.221732 4.57642 10.22173 10.22173z" fill="#455a64" paint-order="markers fill stroke" data-original="#455a64"></path><path id="rect16068" d="m235.08984 36.748047c-5.53999 0-10 4.460006-10 10v11.707031h-11.70703c-5.54003 0-10 4.459969-10 10v13.113282c0 5.54003 4.45997 10 10 10h11.70703v11.70703c0 5.54003 4.46001 10 10 10h13.11328c5.54 0 10-4.45997 10-10v-11.70703h11.70704c5.53999 0 10-4.45997 10-10v-13.113282c0-5.540031-4.46001-10-10-10h-11.70704v-11.707031c0-5.539994-4.46-10-10-10z" fill="#d9defb" transform="matrix(.265 0 0 .265 0 161.533)" paint-order="markers fill stroke" data-original="#d9defb"></path><path id="path16115" d="m22.056441 285.18054c.00001 1.81317-1.46986 3.28304-3.28303 3.28304-1.81316-.00001-3.28302-1.46987-3.28302-3.28304s1.46986-3.28303 3.28302-3.28304c1.81317 0 3.28304 1.46987 3.28303 3.28304z" fill="#d9defb" paint-order="markers fill stroke" data-original="#d9defb"></path><path id="path16363" d="m12.679818 198.52272-.579027.88651 1.772575 1.15777.579028-.88651zm4.429927 2.89345-.579027.88651 1.77301 1.15805.579027-.88651zm4.429928 2.89344-.579027.88651 1.772577 1.15776.579026-.8865zm4.431227 2.89429-.579028.8865 1.772577 1.15777.579028-.8865zm4.429926 2.89345-.579026.8865 1.77301 1.15805.579027-.8865zm4.429934 2.89344-.579028.8865 1.772574 1.15776.579027-.8865zm4.431226 2.89428-.579028.8865 1.772574 1.15778.579028-.88651zm4.37411 2.85698-.579028.8865 1.718932 1.12275.579028-.8865zm3.919399 2.56-.579028.8865 1.77301 1.15805.579027-.8865zm4.431226 2.89428-.579027.88651 1.77301 1.15805.579026-.8865zm4.20452 2.74622-.579028.8865 1.772575 1.15777.579027-.8865z" fill="#8da2e9" font-variant-ligatures="normal" font-variant-position="normal" font-variant-caps="normal" font-variant-numeric="normal" font-variant-alternates="normal" font-variant-east-asian="normal" font-feature-settings="normal" font-variation-settings="normal" text-indent="0" text-align="start" text-decoration-line="none" text-decoration-style="solid" text-decoration-color="#000000" text-transform="none" text-orientation="mixed" white-space="normal" shape-padding="0" shape-margin="0" inline-size="0" isolation="auto" mix-blend-mode="normal" solid-color="#000000" solid-opacity="1" vector-effect="none" paint-order="markers fill stroke" data-original="#8da2e9"></path></g></g></svg>